<?xml version="1.0" encoding="UTF-8"?>
<!DOCTYPE svg PUBLIC "-//W3C//DTD SVG 1.1//EN" "http://www.w3.org/Graphics/SVG/1.1/DTD/svg11.dtd">
<!-- Creator: CorelDRAW 2021 (64 Bit) -->
<svg xmlns="http://www.w3.org/2000/svg" xml:space="preserve" width="988.231mm" height="236.478mm" version="1.1" style="shape-rendering:geometricPrecision; text-rendering:geometricPrecision; image-rendering:optimizeQuality; fill-rule:evenodd; clip-rule:evenodd"
viewBox="0 0 97468.74 23323.67"
 xmlns:xlink="http://www.w3.org/1999/xlink"
 xmlns:xodm="http://www.corel.com/coreldraw/odm/2003">
 <defs>
  <style type="text/css">
   <![CDATA[
    .fil0 {fill:#16c9c9;fill-rule:nonzero}
   ]]>
  </style>
 </defs>
 <g id="Camada_x0020_1">
  <metadata id="CorelCorpID_0Corel-Layer"/>
  <polygon class="fil0" points="-0,22813.86 4460.82,509.81 11980.47,509.81 8698.58,16982.94 18767.27,16982.94 17588.34,22813.86 "/>
  <path id="_1" class="fil0" d="M31894.8 23323.67c-2315.37,0 -4317.43,-424.84 -6006.16,-1274.52 -1688.73,-849.67 -2995.11,-2023.3 -3919.14,-3520.86 -924.02,-1497.55 -1386.04,-3223.46 -1386.04,-5177.72 0,-1975.5 345.18,-3775.75 1035.55,-5400.76 690.36,-1625.02 1662.18,-3032.29 2915.46,-4221.85 1253.28,-1189.55 2740.21,-2108.26 4460.82,-2756.14 1720.59,-647.88 3600.51,-971.82 5639.73,-971.82 2315.38,0 4317.43,424.84 6006.17,1274.51 1688.73,849.68 2995.11,2023.3 3919.14,3520.86 924.02,1497.56 1386.03,3223.47 1386.03,5177.73 0,1975.5 -345.18,3775.75 -1035.54,5400.76 -690.37,1625.01 -1662.18,3032.29 -2915.46,4221.85 -1253.28,1189.54 -2740.21,2108.26 -4460.82,2756.14 -1720.6,647.88 -3600.51,971.82 -5639.74,971.82zm637.26 -6085.82c934.64,0 1757.77,-180.55 2469.38,-541.66 711.6,-361.11 1322.31,-860.31 1832.12,-1497.56 509.81,-637.26 892.16,-1364.8 1147.06,-2182.61 254.91,-817.82 382.36,-1683.43 382.36,-2596.83 0,-870.93 -175.24,-1630.33 -525.74,-2278.2 -350.49,-647.88 -849.67,-1152.38 -1497.55,-1513.49 -647.88,-361.11 -1428.52,-541.67 -2341.93,-541.67 -913.41,0 -1731.22,180.56 -2453.45,541.67 -722.22,361.11 -1338.24,860.3 -1848.05,1497.56 -509.81,637.26 -892.16,1364.8 -1147.06,2182.61 -254.91,817.82 -382.36,1683.42 -382.36,2596.83 0,849.68 175.24,1603.76 525.73,2262.26 350.49,658.51 849.68,1168.32 1497.56,1529.43 647.88,361.11 1428.52,541.66 2341.93,541.66z"/>
  <path id="_2" class="fil0" d="M59042.04 23323.67c-2294.13,0 -4301.5,-419.53 -6022.1,-1258.58 -1720.6,-839.06 -3053.53,-2007.37 -3998.8,-3504.93 -945.27,-1497.56 -1417.91,-3234.09 -1417.91,-5209.59 0,-1954.26 345.18,-3749.2 1035.55,-5384.84 690.36,-1635.63 1672.81,-3048.22 2947.32,-4237.77 1274.52,-1189.55 2788.01,-2108.26 4540.48,-2756.14 1752.46,-647.88 3690.78,-971.82 5814.98,-971.82 2336.62,0 4349.29,366.42 6038.03,1099.27 1688.73,732.85 3053.53,1821.5 4094.39,3265.95l-5384.84 4174.05c-722.22,-934.64 -1486.94,-1577.21 -2294.13,-1927.7 -807.19,-350.5 -1741.84,-525.74 -2803.94,-525.74 -977.13,0 -1858.67,164.63 -2644.62,493.88 -785.95,329.25 -1460.39,796.57 -2023.3,1401.97 -562.92,605.4 -993.06,1322.32 -1290.45,2150.75 -297.39,828.43 -446.08,1741.84 -446.08,2740.2 0,870.93 196.49,1635.63 589.46,2294.13 392.98,658.51 955.89,1168.32 1688.73,1529.43 732.86,361.11 1609.08,541.66 2628.69,541.66 849.68,0 1699.36,-143.38 2549.04,-430.14 849.67,-286.77 1720.6,-780.64 2612.76,-1481.63l2835.8 5352.98c-1168.31,849.67 -2527.8,1502.87 -4078.46,1959.57 -1550.66,456.7 -3207.53,685.05 -4970.61,685.05zm2740.21 -3791.69l1688.73 -8475.54 6531.9 0 -1911.78 9622.61 -6308.86 -1147.07z"/>
  <path id="_3" class="fil0" d="M83417.18 23323.67c-2315.37,0 -4317.43,-424.84 -6006.16,-1274.52 -1688.73,-849.67 -2995.11,-2023.3 -3919.14,-3520.86 -924.02,-1497.55 -1386.04,-3223.46 -1386.04,-5177.72 0,-1975.5 345.18,-3775.75 1035.55,-5400.76 690.36,-1625.02 1662.18,-3032.29 2915.46,-4221.85 1253.28,-1189.55 2740.21,-2108.26 4460.82,-2756.14 1720.59,-647.88 3600.51,-971.82 5639.73,-971.82 2315.38,0 4317.43,424.84 6006.17,1274.51 1688.73,849.68 2995.11,2023.3 3919.14,3520.86 924.02,1497.56 1386.03,3223.47 1386.03,5177.73 0,1975.5 -345.18,3775.75 -1035.54,5400.76 -690.37,1625.01 -1662.18,3032.29 -2915.46,4221.85 -1253.28,1189.54 -2740.21,2108.26 -4460.82,2756.14 -1720.6,647.88 -3600.51,971.82 -5639.74,971.82zm637.26 -6085.82c934.64,0 1757.77,-180.55 2469.38,-541.66 711.6,-361.11 1322.31,-860.31 1832.12,-1497.56 509.81,-637.26 892.16,-1364.8 1147.06,-2182.61 254.91,-817.82 382.36,-1683.43 382.36,-2596.83 0,-870.93 -175.24,-1630.33 -525.74,-2278.2 -350.49,-647.88 -849.67,-1152.38 -1497.55,-1513.49 -647.88,-361.11 -1428.52,-541.67 -2341.93,-541.67 -913.41,0 -1731.22,180.56 -2453.45,541.67 -722.22,361.11 -1338.24,860.3 -1848.05,1497.56 -509.81,637.26 -892.16,1364.8 -1147.06,2182.61 -254.91,817.82 -382.36,1683.42 -382.36,2596.83 0,849.68 175.24,1603.76 525.73,2262.26 350.49,658.51 849.68,1168.32 1497.56,1529.43 647.88,361.11 1428.52,541.66 2341.93,541.66z"/>
 </g>
</svg>
