<?xml version="1.0" encoding="UTF-8"?>
<!DOCTYPE svg PUBLIC "-//W3C//DTD SVG 1.1//EN" "http://www.w3.org/Graphics/SVG/1.1/DTD/svg11.dtd">
<!-- Creator: CorelDRAW 2021 (64 Bit) -->
<svg xmlns="http://www.w3.org/2000/svg" xml:space="preserve" width="265.641mm" height="177.447mm" version="1.1" style="shape-rendering:geometricPrecision; text-rendering:geometricPrecision; image-rendering:optimizeQuality; fill-rule:evenodd; clip-rule:evenodd"
viewBox="0 0 22746.73 15194.71"
 xmlns:xlink="http://www.w3.org/1999/xlink"
 xmlns:xodm="http://www.corel.com/coreldraw/odm/2003">
 <defs>
  <style type="text/css">
   <![CDATA[
    .str0 {stroke:#212121;stroke-width:90.62;stroke-linecap:round;stroke-linejoin:round;stroke-miterlimit:10}
    .fil0 {fill:none;fill-rule:nonzero}
   ]]>
  </style>
 </defs>
 <g id="PATTERN">
  <metadata id="CorelCorpID_0Corel-Layer"/>
  <g id="_2263246665824">
   <g>
    <g>
     <line class="fil0 str0" x1="11952.48" y1="45.32" x2="11952.48" y2= "1608.52" />
     <line class="fil0 str0" x1="12403.73" y1="45.32" x2="12403.73" y2= "1869.05" />
     <line class="fil0 str0" x1="12854.98" y1="45.32" x2="12854.98" y2= "2129.59" />
     <line class="fil0 str0" x1="13306.24" y1="45.32" x2="13306.24" y2= "2390.11" />
     <line class="fil0 str0" x1="13757.5" y1="45.32" x2="13757.5" y2= "2650.65" />
     <line class="fil0 str0" x1="14208.75" y1="45.32" x2="14208.75" y2= "2911.18" />
     <polyline class="fil0 str0" points="14660.03,45.32 14660.01,45.32 14660.01,3171.71 "/>
    </g>
    <g>
     <line class="fil0 str0" x1="14660.01" y1="45.32" x2="14660.03" y2= "45.32" />
     <line class="fil0 str0" x1="15562.54" y1="45.32" x2="14660.01" y2= "566.39" />
     <line class="fil0 str0" x1="16465.05" y1="45.32" x2="14660.01" y2= "1087.46" />
     <line class="fil0 str0" x1="17367.55" y1="45.32" x2="14660.01" y2= "1608.52" />
    </g>
   </g>
   <g>
    <g>
     <line class="fil0 str0" x1="6533.14" y1="45.32" x2="6533.14" y2= "1608.52" />
     <line class="fil0 str0" x1="6984.4" y1="45.32" x2="6984.4" y2= "1869.05" />
     <line class="fil0 str0" x1="7435.65" y1="45.32" x2="7435.65" y2= "2129.59" />
     <line class="fil0 str0" x1="7886.91" y1="45.32" x2="7886.91" y2= "2390.11" />
     <line class="fil0 str0" x1="8338.16" y1="45.32" x2="8338.16" y2= "2650.65" />
     <line class="fil0 str0" x1="8789.42" y1="45.32" x2="8789.42" y2= "2911.18" />
     <polyline class="fil0 str0" points="9240.69,45.32 9240.67,45.32 9240.67,3171.71 "/>
    </g>
    <g>
     <line class="fil0 str0" x1="9240.67" y1="45.32" x2="9240.69" y2= "45.32" />
     <line class="fil0 str0" x1="10143.19" y1="45.32" x2="9240.67" y2= "566.39" />
     <line class="fil0 str0" x1="11045.7" y1="45.32" x2="9240.67" y2= "1087.46" />
     <line class="fil0 str0" x1="11948.19" y1="45.32" x2="9240.67" y2= "1608.52" />
    </g>
   </g>
  </g>
  <g id="_2263246671344">
   <g>
    <g>
     <polyline class="fil0 str0" points="14660.01,6298.57 11952.48,7861.76 11952.48,10988.15 "/>
     <polyline class="fil0 str0" points="15111.26,6559.1 12403.73,8122.29 12403.73,11248.68 "/>
     <polyline class="fil0 str0" points="15562.52,6819.64 12854.98,8382.82 12854.98,11509.21 "/>
     <polyline class="fil0 str0" points="16013.78,7080.17 13306.24,8643.36 13306.24,11769.74 "/>
     <polyline class="fil0 str0" points="16465.03,7340.7 13757.5,8903.89 13757.5,12030.28 "/>
     <polyline class="fil0 str0" points="16916.29,7601.23 14208.75,9164.42 14208.75,12290.81 "/>
     <polyline class="fil0 str0" points="17367.54,7861.76 14660.01,9424.95 14660.01,12551.34 "/>
    </g>
    <g>
     <line class="fil0 str0" x1="14660.01" y1="9424.95" x2="17367.55" y2= "7861.76" />
     <line class="fil0 str0" x1="17367.55" y1="8382.82" x2="14660.01" y2= "9946.02" />
     <line class="fil0 str0" x1="17367.55" y1="8903.89" x2="14660.01" y2= "10467.09" />
     <line class="fil0 str0" x1="17367.55" y1="9424.95" x2="14660.01" y2= "10988.15" />
    </g>
   </g>
   <g>
    <g>
     <polyline class="fil0 str0" points="9240.67,6298.57 6533.14,7861.76 6533.14,10988.15 "/>
     <polyline class="fil0 str0" points="9691.93,6559.1 6984.4,8122.29 6984.4,11248.68 "/>
     <polyline class="fil0 str0" points="10143.19,6819.64 7435.65,8382.82 7435.65,11509.21 "/>
     <polyline class="fil0 str0" points="10594.44,7080.17 7886.91,8643.36 7886.91,11769.74 "/>
     <polyline class="fil0 str0" points="11045.69,7340.7 8338.16,8903.89 8338.16,12030.28 "/>
     <polyline class="fil0 str0" points="11496.94,7601.23 8789.42,9164.42 8789.42,12290.81 "/>
     <polyline class="fil0 str0" points="11948.19,7861.76 9240.67,9424.95 9240.67,12551.34 "/>
    </g>
    <g>
     <line class="fil0 str0" x1="9240.67" y1="9424.95" x2="11948.19" y2= "7861.76" />
     <line class="fil0 str0" x1="11948.19" y1="8382.82" x2="9240.67" y2= "9946.02" />
     <line class="fil0 str0" x1="11948.19" y1="8903.89" x2="9240.67" y2= "10467.09" />
     <line class="fil0 str0" x1="11948.19" y1="9424.95" x2="9240.67" y2= "10988.15" />
    </g>
   </g>
   <g>
    <g>
     <polyline class="fil0 str0" points="17369.69,1608.75 14662.15,3171.95 14662.15,6298.34 "/>
    </g>
   </g>
   <g>
    <g>
     <polyline class="fil0 str0" points="11950.34,1608.75 9242.82,3171.95 9242.82,6298.34 "/>
     <polyline class="fil0 str0" points="12401.59,1869.28 9694.07,3432.48 9694.07,6558.87 "/>
     <polyline class="fil0 str0" points="12852.84,2129.82 10145.33,3693.01 10145.33,6819.4 "/>
     <polyline class="fil0 str0" points="13304.1,2390.35 10596.58,3953.55 10596.58,7079.94 "/>
     <polyline class="fil0 str0" points="13755.36,2650.88 11047.83,4214.07 11047.83,7340.46 "/>
     <polyline class="fil0 str0" points="14206.61,2911.42 11499.08,4474.61 11499.08,7601 "/>
     <polyline class="fil0 str0" points="14657.87,3171.95 11950.34,4735.15 11950.34,7861.52 "/>
    </g>
    <g>
     <line class="fil0 str0" x1="11950.34" y1="4735.15" x2="14657.87" y2= "3171.95" />
     <line class="fil0 str0" x1="14657.87" y1="3693.01" x2="11950.34" y2= "5256.21" />
     <line class="fil0 str0" x1="14657.87" y1="4214.07" x2="11950.34" y2= "5777.27" />
     <line class="fil0 str0" x1="14657.87" y1="4735.15" x2="11950.34" y2= "6298.34" />
     <line class="fil0 str0" x1="14657.87" y1="5256.21" x2="11950.34" y2= "6819.4" />
     <line class="fil0 str0" x1="14657.87" y1="5777.27" x2="11950.34" y2= "7340.46" />
     <line class="fil0 str0" x1="14657.87" y1="6298.34" x2="11950.34" y2= "7861.52" />
    </g>
   </g>
   <g>
    <g>
     <polyline class="fil0 str0" points="9238.53,3171.95 6531,4735.15 6531,7861.52 "/>
    </g>
    <g>
     <line class="fil0 str0" x1="6531" y1="4735.15" x2="9238.54" y2= "3171.95" />
     <line class="fil0 str0" x1="9238.54" y1="3693.01" x2="6531" y2= "5256.21" />
     <line class="fil0 str0" x1="9238.54" y1="4214.07" x2="6531" y2= "5777.27" />
     <line class="fil0 str0" x1="9238.54" y1="4735.15" x2="6531" y2= "6298.34" />
     <line class="fil0 str0" x1="9238.54" y1="5256.21" x2="6531" y2= "6819.4" />
     <line class="fil0 str0" x1="9238.54" y1="5777.27" x2="6531" y2= "7340.46" />
     <line class="fil0 str0" x1="9238.54" y1="6298.34" x2="6531" y2= "7861.52" />
    </g>
   </g>
   <g>
    <g>
     <line class="fil0 str0" x1="11952.48" y1="45.32" x2="11952.48" y2= "1608.52" />
     <line class="fil0 str0" x1="12403.73" y1="45.32" x2="12403.73" y2= "1869.05" />
     <line class="fil0 str0" x1="12854.98" y1="45.32" x2="12854.98" y2= "2129.59" />
     <line class="fil0 str0" x1="13306.24" y1="45.32" x2="13306.24" y2= "2390.11" />
     <line class="fil0 str0" x1="13757.5" y1="45.32" x2="13757.5" y2= "2650.65" />
     <line class="fil0 str0" x1="14208.75" y1="45.32" x2="14208.75" y2= "2911.18" />
     <polyline class="fil0 str0" points="14660.03,45.32 14660.01,45.32 14660.01,3171.71 "/>
    </g>
    <g>
     <line class="fil0 str0" x1="14660.01" y1="45.32" x2="14660.03" y2= "45.32" />
     <line class="fil0 str0" x1="15562.54" y1="45.32" x2="14660.01" y2= "566.39" />
     <line class="fil0 str0" x1="16465.05" y1="45.32" x2="14660.01" y2= "1087.46" />
     <line class="fil0 str0" x1="17367.55" y1="45.32" x2="14660.01" y2= "1608.52" />
     <line class="fil0 str0" x1="17367.55" y1="566.39" x2="14660.01" y2= "2129.59" />
     <line class="fil0 str0" x1="17367.55" y1="1087.45" x2="14660.01" y2= "2650.65" />
     <line class="fil0 str0" x1="17367.55" y1="1608.52" x2="14660.01" y2= "3171.71" />
    </g>
   </g>
   <g>
    <g>
     <line class="fil0 str0" x1="6533.14" y1="45.32" x2="6533.14" y2= "1608.52" />
     <line class="fil0 str0" x1="6984.4" y1="45.32" x2="6984.4" y2= "1869.05" />
     <line class="fil0 str0" x1="7435.65" y1="45.32" x2="7435.65" y2= "2129.59" />
     <line class="fil0 str0" x1="7886.91" y1="45.32" x2="7886.91" y2= "2390.11" />
     <line class="fil0 str0" x1="8338.16" y1="45.32" x2="8338.16" y2= "2650.65" />
     <line class="fil0 str0" x1="8789.42" y1="45.32" x2="8789.42" y2= "2911.18" />
     <polyline class="fil0 str0" points="9240.69,45.32 9240.67,45.32 9240.67,3171.71 "/>
    </g>
    <g>
     <line class="fil0 str0" x1="9240.67" y1="45.32" x2="9240.69" y2= "45.32" />
     <line class="fil0 str0" x1="10143.19" y1="45.32" x2="9240.67" y2= "566.39" />
     <line class="fil0 str0" x1="11045.7" y1="45.32" x2="9240.67" y2= "1087.46" />
     <line class="fil0 str0" x1="11948.19" y1="45.32" x2="9240.67" y2= "1608.52" />
     <line class="fil0 str0" x1="11948.19" y1="566.39" x2="9240.67" y2= "2129.59" />
     <line class="fil0 str0" x1="11948.19" y1="1087.45" x2="9240.67" y2= "2650.65" />
     <line class="fil0 str0" x1="11948.19" y1="1608.52" x2="9240.67" y2= "3171.71" />
    </g>
   </g>
  </g>
  <g id="_2263246626080">
   <g>
    <g>
     <polyline class="fil0 str0" points="17369.69,10988.38 14662.15,12551.57 14662.15,15149.39 "/>
    </g>
   </g>
   <g>
    <g>
     <polyline class="fil0 str0" points="11950.34,10988.38 9242.82,12551.57 9242.82,15149.39 "/>
     <polyline class="fil0 str0" points="12401.59,11248.91 9694.07,12812.11 9694.07,15149.39 "/>
     <polyline class="fil0 str0" points="12852.84,11509.45 10145.33,13072.64 10145.33,15149.39 "/>
     <polyline class="fil0 str0" points="13304.1,11769.98 10596.58,13333.17 10596.58,15149.39 "/>
     <polyline class="fil0 str0" points="13755.36,12030.51 11047.83,13593.7 11047.83,15149.39 "/>
     <polyline class="fil0 str0" points="14206.61,12291.05 11499.08,13854.24 11499.08,15149.39 "/>
     <polyline class="fil0 str0" points="14657.87,12551.57 11950.34,14114.77 11950.34,15149.39 "/>
    </g>
    <g>
     <line class="fil0 str0" x1="11950.34" y1="14114.77" x2="14657.87" y2= "12551.57" />
     <line class="fil0 str0" x1="14657.87" y1="13072.64" x2="11950.34" y2= "14635.84" />
     <line class="fil0 str0" x1="14657.87" y1="13593.7" x2="11963.34" y2= "15149.39" />
     <line class="fil0 str0" x1="14657.87" y1="14114.77" x2="12865.85" y2= "15149.39" />
     <line class="fil0 str0" x1="14657.87" y1="14635.84" x2="13768.37" y2= "15149.39" />
    </g>
   </g>
   <g>
    <g>
     <polyline class="fil0 str0" points="9238.53,12551.57 6531,14114.77 6531,15149.39 "/>
    </g>
    <g>
     <line class="fil0 str0" x1="6531" y1="14114.77" x2="9238.54" y2= "12551.57" />
     <line class="fil0 str0" x1="9238.54" y1="13072.64" x2="6531" y2= "14635.84" />
     <line class="fil0 str0" x1="9238.54" y1="13593.7" x2="6544.01" y2= "15149.39" />
     <line class="fil0 str0" x1="9238.54" y1="14114.77" x2="7446.52" y2= "15149.39" />
     <line class="fil0 str0" x1="9238.54" y1="14635.84" x2="8349.03" y2= "15149.39" />
    </g>
   </g>
   <g>
    <g>
     <polyline class="fil0 str0" points="14660.01,6298.57 11952.48,7861.76 11952.48,10988.15 "/>
     <polyline class="fil0 str0" points="15111.26,6559.1 12403.73,8122.29 12403.73,11248.68 "/>
     <polyline class="fil0 str0" points="15562.52,6819.64 12854.98,8382.82 12854.98,11509.21 "/>
     <polyline class="fil0 str0" points="16013.78,7080.17 13306.24,8643.36 13306.24,11769.74 "/>
     <polyline class="fil0 str0" points="16465.03,7340.7 13757.5,8903.89 13757.5,12030.28 "/>
     <polyline class="fil0 str0" points="16916.29,7601.23 14208.75,9164.42 14208.75,12290.81 "/>
     <polyline class="fil0 str0" points="17367.54,7861.76 14660.01,9424.95 14660.01,12551.34 "/>
    </g>
    <g>
     <line class="fil0 str0" x1="14660.01" y1="9424.95" x2="17367.55" y2= "7861.76" />
     <line class="fil0 str0" x1="17367.55" y1="8382.82" x2="14660.01" y2= "9946.02" />
     <line class="fil0 str0" x1="17367.55" y1="8903.89" x2="14660.01" y2= "10467.09" />
     <line class="fil0 str0" x1="17367.55" y1="9424.95" x2="14660.01" y2= "10988.15" />
     <line class="fil0 str0" x1="17367.55" y1="9946.02" x2="14660.01" y2= "11509.21" />
     <line class="fil0 str0" x1="17367.55" y1="10467.08" x2="14660.01" y2= "12030.28" />
     <line class="fil0 str0" x1="17367.55" y1="10988.15" x2="14660.01" y2= "12551.34" />
    </g>
   </g>
   <g>
    <g>
     <polyline class="fil0 str0" points="9240.67,6298.57 6533.14,7861.76 6533.14,10988.15 "/>
     <polyline class="fil0 str0" points="9691.93,6559.1 6984.4,8122.29 6984.4,11248.68 "/>
     <polyline class="fil0 str0" points="10143.19,6819.64 7435.65,8382.82 7435.65,11509.21 "/>
     <polyline class="fil0 str0" points="10594.44,7080.17 7886.91,8643.36 7886.91,11769.74 "/>
     <polyline class="fil0 str0" points="11045.69,7340.7 8338.16,8903.89 8338.16,12030.28 "/>
     <polyline class="fil0 str0" points="11496.94,7601.23 8789.42,9164.42 8789.42,12290.81 "/>
     <polyline class="fil0 str0" points="11948.19,7861.76 9240.67,9424.95 9240.67,12551.34 "/>
    </g>
    <g>
     <line class="fil0 str0" x1="9240.67" y1="9424.95" x2="11948.19" y2= "7861.76" />
     <line class="fil0 str0" x1="11948.19" y1="8382.82" x2="9240.67" y2= "9946.02" />
     <line class="fil0 str0" x1="11948.19" y1="8903.89" x2="9240.67" y2= "10467.09" />
     <line class="fil0 str0" x1="11948.19" y1="9424.95" x2="9240.67" y2= "10988.15" />
     <line class="fil0 str0" x1="11948.19" y1="9946.02" x2="9240.67" y2= "11509.21" />
     <line class="fil0 str0" x1="11948.19" y1="10467.08" x2="9240.67" y2= "12030.28" />
     <line class="fil0 str0" x1="11948.19" y1="10988.15" x2="9240.67" y2= "12551.34" />
    </g>
   </g>
  </g>
  <g id="_2263246645520">
   <g>
    <g>
     <polyline class="fil0 str0" points="20079.35,6298.57 17371.83,7861.76 17371.83,10988.15 "/>
     <polyline class="fil0 str0" points="20530.61,6559.1 17823.08,8122.29 17823.08,11248.68 "/>
     <polyline class="fil0 str0" points="20981.86,6819.64 18274.34,8382.82 18274.34,11509.21 "/>
     <polyline class="fil0 str0" points="21433.12,7080.17 18725.59,8643.36 18725.59,11769.74 "/>
     <polyline class="fil0 str0" points="21884.38,7340.7 19176.84,8903.89 19176.84,12030.28 "/>
     <polyline class="fil0 str0" points="22335.63,7601.23 19628.1,9164.42 19628.1,12290.81 "/>
     <polyline class="fil0 str0" points="22701.42,7911.11 20079.35,9424.95 20079.35,12551.34 "/>
    </g>
    <g>
     <line class="fil0 str0" x1="20079.35" y1="9424.95" x2="22701.42" y2= "7911.11" />
     <line class="fil0 str0" x1="22701.42" y1="8432.17" x2="20079.35" y2= "9946.02" />
     <line class="fil0 str0" x1="22701.42" y1="8953.24" x2="20079.35" y2= "10467.09" />
     <line class="fil0 str0" x1="22701.42" y1="9474.3" x2="20079.35" y2= "10988.15" />
    </g>
   </g>
   <g>
    <g>
     <polyline class="fil0 str0" points="14660.01,6298.57 11952.48,7861.76 11952.48,10988.15 "/>
     <polyline class="fil0 str0" points="15111.26,6559.1 12403.73,8122.29 12403.73,11248.68 "/>
     <polyline class="fil0 str0" points="15562.52,6819.64 12854.98,8382.82 12854.98,11509.21 "/>
     <polyline class="fil0 str0" points="16013.78,7080.17 13306.24,8643.36 13306.24,11769.74 "/>
     <polyline class="fil0 str0" points="16465.03,7340.7 13757.5,8903.89 13757.5,12030.28 "/>
     <polyline class="fil0 str0" points="16916.29,7601.23 14208.75,9164.42 14208.75,12290.81 "/>
     <polyline class="fil0 str0" points="17367.54,7861.76 14660.01,9424.95 14660.01,12551.34 "/>
    </g>
    <g>
     <line class="fil0 str0" x1="14660.01" y1="9424.95" x2="17367.55" y2= "7861.76" />
     <line class="fil0 str0" x1="17367.55" y1="8382.82" x2="14660.01" y2= "9946.02" />
     <line class="fil0 str0" x1="17367.55" y1="8903.89" x2="14660.01" y2= "10467.09" />
     <line class="fil0 str0" x1="17367.55" y1="9424.95" x2="14660.01" y2= "10988.15" />
    </g>
   </g>
   <g>
    <g>
     <polyline class="fil0 str0" points="22701.42,1659.34 20081.49,3171.95 20081.49,6298.34 "/>
    </g>
   </g>
   <g>
    <g>
     <polyline class="fil0 str0" points="17369.69,1608.75 14662.15,3171.95 14662.15,6298.34 "/>
     <polyline class="fil0 str0" points="17820.94,1869.28 15113.41,3432.48 15113.41,6558.87 "/>
     <polyline class="fil0 str0" points="18272.19,2129.82 15564.66,3693.01 15564.66,6819.4 "/>
     <polyline class="fil0 str0" points="18723.44,2390.35 16015.92,3953.55 16015.92,7079.94 "/>
     <polyline class="fil0 str0" points="19174.7,2650.88 16467.17,4214.07 16467.17,7340.46 "/>
     <polyline class="fil0 str0" points="19625.96,2911.42 16918.43,4474.61 16918.43,7601 "/>
     <polyline class="fil0 str0" points="20077.21,3171.95 17369.69,4735.15 17369.69,7861.52 "/>
    </g>
    <g>
     <line class="fil0 str0" x1="17369.69" y1="4735.15" x2="20077.21" y2= "3171.95" />
     <line class="fil0 str0" x1="20077.21" y1="3693.01" x2="17369.69" y2= "5256.21" />
     <line class="fil0 str0" x1="20077.21" y1="4214.07" x2="17369.69" y2= "5777.27" />
     <line class="fil0 str0" x1="20077.21" y1="4735.15" x2="17369.69" y2= "6298.34" />
     <line class="fil0 str0" x1="20077.21" y1="5256.21" x2="17369.69" y2= "6819.4" />
     <line class="fil0 str0" x1="20077.21" y1="5777.27" x2="17369.69" y2= "7340.46" />
     <line class="fil0 str0" x1="20077.21" y1="6298.34" x2="17369.69" y2= "7861.52" />
    </g>
   </g>
   <g>
    <g>
     <polyline class="fil0 str0" points="14657.87,3171.95 11950.34,4735.15 11950.34,7861.52 "/>
    </g>
    <g>
     <line class="fil0 str0" x1="11950.34" y1="4735.15" x2="14657.87" y2= "3171.95" />
     <line class="fil0 str0" x1="14657.87" y1="3693.01" x2="11950.34" y2= "5256.21" />
     <line class="fil0 str0" x1="14657.87" y1="4214.07" x2="11950.34" y2= "5777.27" />
     <line class="fil0 str0" x1="14657.87" y1="4735.15" x2="11950.34" y2= "6298.34" />
     <line class="fil0 str0" x1="14657.87" y1="5256.21" x2="11950.34" y2= "6819.4" />
     <line class="fil0 str0" x1="14657.87" y1="5777.27" x2="11950.34" y2= "7340.46" />
     <line class="fil0 str0" x1="14657.87" y1="6298.34" x2="11950.34" y2= "7861.52" />
    </g>
   </g>
   <g>
    <g>
     <line class="fil0 str0" x1="17371.83" y1="45.32" x2="17371.83" y2= "1608.52" />
     <line class="fil0 str0" x1="17823.08" y1="45.32" x2="17823.08" y2= "1869.05" />
     <line class="fil0 str0" x1="18274.34" y1="45.32" x2="18274.34" y2= "2129.59" />
     <line class="fil0 str0" x1="18725.59" y1="45.32" x2="18725.59" y2= "2390.11" />
     <line class="fil0 str0" x1="19176.84" y1="45.32" x2="19176.84" y2= "2650.65" />
     <line class="fil0 str0" x1="19628.1" y1="45.32" x2="19628.1" y2= "2911.18" />
     <polyline class="fil0 str0" points="20079.37,45.32 20079.35,45.32 20079.35,3171.71 "/>
    </g>
    <g>
     <line class="fil0 str0" x1="20079.35" y1="45.32" x2="20079.37" y2= "45.32" />
     <line class="fil0 str0" x1="20981.88" y1="45.32" x2="20079.35" y2= "566.39" />
     <line class="fil0 str0" x1="21884.4" y1="45.32" x2="20079.35" y2= "1087.46" />
     <line class="fil0 str0" x1="22701.42" y1="94.67" x2="20079.35" y2= "1608.52" />
     <line class="fil0 str0" x1="22701.42" y1="615.74" x2="20079.35" y2= "2129.59" />
     <line class="fil0 str0" x1="22701.42" y1="1136.8" x2="20079.35" y2= "2650.65" />
     <line class="fil0 str0" x1="22701.42" y1="1657.87" x2="20079.35" y2= "3171.71" />
    </g>
   </g>
   <g>
    <g>
     <line class="fil0 str0" x1="11952.48" y1="45.32" x2="11952.48" y2= "1608.52" />
     <line class="fil0 str0" x1="12403.73" y1="45.32" x2="12403.73" y2= "1869.05" />
     <line class="fil0 str0" x1="12854.98" y1="45.32" x2="12854.98" y2= "2129.59" />
     <line class="fil0 str0" x1="13306.24" y1="45.32" x2="13306.24" y2= "2390.11" />
     <line class="fil0 str0" x1="13757.5" y1="45.32" x2="13757.5" y2= "2650.65" />
     <line class="fil0 str0" x1="14208.75" y1="45.32" x2="14208.75" y2= "2911.18" />
     <polyline class="fil0 str0" points="14660.03,45.32 14660.01,45.32 14660.01,3171.71 "/>
    </g>
    <g>
     <line class="fil0 str0" x1="14660.01" y1="45.32" x2="14660.03" y2= "45.32" />
     <line class="fil0 str0" x1="15562.54" y1="45.32" x2="14660.01" y2= "566.39" />
     <line class="fil0 str0" x1="16465.05" y1="45.32" x2="14660.01" y2= "1087.46" />
     <line class="fil0 str0" x1="17367.55" y1="45.32" x2="14660.01" y2= "1608.52" />
     <line class="fil0 str0" x1="17367.55" y1="566.39" x2="14660.01" y2= "2129.59" />
     <line class="fil0 str0" x1="17367.55" y1="1087.45" x2="14660.01" y2= "2650.65" />
     <line class="fil0 str0" x1="17367.55" y1="1608.52" x2="14660.01" y2= "3171.71" />
    </g>
   </g>
  </g>
  <g id="_2263247785984">
   <g>
    <g>
     <polyline class="fil0 str0" points="22701.42,11038.96 20081.49,12551.57 20081.49,15149.39 "/>
    </g>
   </g>
   <g>
    <g>
     <polyline class="fil0 str0" points="17369.69,10988.38 14662.15,12551.57 14662.15,15149.39 "/>
     <polyline class="fil0 str0" points="17820.94,11248.91 15113.41,12812.11 15113.41,15149.39 "/>
     <polyline class="fil0 str0" points="18272.19,11509.45 15564.66,13072.64 15564.66,15149.39 "/>
     <polyline class="fil0 str0" points="18723.44,11769.98 16015.92,13333.17 16015.92,15149.39 "/>
     <polyline class="fil0 str0" points="19174.7,12030.51 16467.17,13593.7 16467.17,15149.39 "/>
     <polyline class="fil0 str0" points="19625.96,12291.05 16918.43,13854.24 16918.43,15149.39 "/>
     <polyline class="fil0 str0" points="20077.21,12551.57 17369.69,14114.77 17369.69,15149.39 "/>
    </g>
    <g>
     <line class="fil0 str0" x1="17369.69" y1="14114.77" x2="20077.21" y2= "12551.57" />
     <line class="fil0 str0" x1="20077.21" y1="13072.64" x2="17369.69" y2= "14635.84" />
     <line class="fil0 str0" x1="20077.21" y1="13593.7" x2="17382.69" y2= "15149.39" />
     <line class="fil0 str0" x1="20077.21" y1="14114.77" x2="18285.2" y2= "15149.39" />
     <line class="fil0 str0" x1="20077.21" y1="14635.84" x2="19187.71" y2= "15149.39" />
    </g>
   </g>
   <g>
    <g>
     <polyline class="fil0 str0" points="14657.87,12551.57 11950.34,14114.77 11950.34,15149.39 "/>
    </g>
    <g>
     <line class="fil0 str0" x1="11950.34" y1="14114.77" x2="14657.87" y2= "12551.57" />
     <line class="fil0 str0" x1="14657.87" y1="13072.64" x2="11950.34" y2= "14635.84" />
     <line class="fil0 str0" x1="14657.87" y1="13593.7" x2="11963.34" y2= "15149.39" />
     <line class="fil0 str0" x1="14657.87" y1="14114.77" x2="12865.85" y2= "15149.39" />
     <line class="fil0 str0" x1="14657.87" y1="14635.84" x2="13768.37" y2= "15149.39" />
    </g>
   </g>
   <g>
    <g>
     <polyline class="fil0 str0" points="20079.35,6298.57 17371.83,7861.76 17371.83,10988.15 "/>
     <polyline class="fil0 str0" points="20530.61,6559.1 17823.08,8122.29 17823.08,11248.68 "/>
     <polyline class="fil0 str0" points="20981.86,6819.64 18274.34,8382.82 18274.34,11509.21 "/>
     <polyline class="fil0 str0" points="21433.12,7080.17 18725.59,8643.36 18725.59,11769.74 "/>
     <polyline class="fil0 str0" points="21884.38,7340.7 19176.84,8903.89 19176.84,12030.28 "/>
     <polyline class="fil0 str0" points="22335.63,7601.23 19628.1,9164.42 19628.1,12290.81 "/>
     <polyline class="fil0 str0" points="22701.42,7911.11 20079.35,9424.95 20079.35,12551.34 "/>
    </g>
    <g>
     <line class="fil0 str0" x1="20079.35" y1="9424.95" x2="22701.42" y2= "7911.11" />
     <line class="fil0 str0" x1="22701.42" y1="8432.17" x2="20079.35" y2= "9946.02" />
     <line class="fil0 str0" x1="22701.42" y1="8953.24" x2="20079.35" y2= "10467.09" />
     <line class="fil0 str0" x1="22701.42" y1="9474.3" x2="20079.35" y2= "10988.15" />
     <line class="fil0 str0" x1="22701.42" y1="9995.36" x2="20079.35" y2= "11509.21" />
     <line class="fil0 str0" x1="22701.42" y1="10516.43" x2="20079.35" y2= "12030.28" />
     <line class="fil0 str0" x1="22701.42" y1="11037.5" x2="20079.35" y2= "12551.34" />
    </g>
   </g>
   <g>
    <g>
     <polyline class="fil0 str0" points="14660.01,6298.57 11952.48,7861.76 11952.48,10988.15 "/>
     <polyline class="fil0 str0" points="15111.26,6559.1 12403.73,8122.29 12403.73,11248.68 "/>
     <polyline class="fil0 str0" points="15562.52,6819.64 12854.98,8382.82 12854.98,11509.21 "/>
     <polyline class="fil0 str0" points="16013.78,7080.17 13306.24,8643.36 13306.24,11769.74 "/>
     <polyline class="fil0 str0" points="16465.03,7340.7 13757.5,8903.89 13757.5,12030.28 "/>
     <polyline class="fil0 str0" points="16916.29,7601.23 14208.75,9164.42 14208.75,12290.81 "/>
     <polyline class="fil0 str0" points="17367.54,7861.76 14660.01,9424.95 14660.01,12551.34 "/>
    </g>
    <g>
     <line class="fil0 str0" x1="14660.01" y1="9424.95" x2="17367.55" y2= "7861.76" />
     <line class="fil0 str0" x1="17367.55" y1="8382.82" x2="14660.01" y2= "9946.02" />
     <line class="fil0 str0" x1="17367.55" y1="8903.89" x2="14660.01" y2= "10467.09" />
     <line class="fil0 str0" x1="17367.55" y1="9424.95" x2="14660.01" y2= "10988.15" />
     <line class="fil0 str0" x1="17367.55" y1="9946.02" x2="14660.01" y2= "11509.21" />
     <line class="fil0 str0" x1="17367.55" y1="10467.08" x2="14660.01" y2= "12030.28" />
     <line class="fil0 str0" x1="17367.55" y1="10988.15" x2="14660.01" y2= "12551.34" />
    </g>
   </g>
  </g>
  <g id="_2263247806912">
   <g>
    <g>
     <polyline class="fil0 str0" points="20079.35,6298.57 17371.83,7861.76 17371.83,10988.15 "/>
     <polyline class="fil0 str0" points="20530.61,6559.1 17823.08,8122.29 17823.08,11248.68 "/>
     <polyline class="fil0 str0" points="20981.86,6819.64 18274.34,8382.82 18274.34,11509.21 "/>
     <polyline class="fil0 str0" points="21433.12,7080.17 18725.59,8643.36 18725.59,11769.74 "/>
     <polyline class="fil0 str0" points="21884.38,7340.7 19176.84,8903.89 19176.84,12030.28 "/>
     <polyline class="fil0 str0" points="22335.63,7601.23 19628.1,9164.42 19628.1,12290.81 "/>
     <polyline class="fil0 str0" points="22701.42,7911.11 20079.35,9424.95 20079.35,12551.34 "/>
    </g>
    <g>
     <line class="fil0 str0" x1="20079.35" y1="9424.95" x2="22701.42" y2= "7911.11" />
     <line class="fil0 str0" x1="22701.42" y1="8432.17" x2="20079.35" y2= "9946.02" />
     <line class="fil0 str0" x1="22701.42" y1="8953.24" x2="20079.35" y2= "10467.09" />
     <line class="fil0 str0" x1="22701.42" y1="9474.3" x2="20079.35" y2= "10988.15" />
    </g>
   </g>
   <g>
    <g>
     <polyline class="fil0 str0" points="22701.42,1659.34 20081.49,3171.95 20081.49,6298.34 "/>
     <polyline class="fil0 str0" points="22701.42,2180.39 20532.75,3432.48 20532.75,6558.87 "/>
     <polyline class="fil0 str0" points="22701.42,2701.46 20984,3693.01 20984,6819.4 "/>
     <polyline class="fil0 str0" points="22701.42,3222.53 21435.26,3953.55 21435.26,7079.94 "/>
     <polyline class="fil0 str0" points="22701.42,3743.59 21886.52,4214.07 21886.52,7340.46 "/>
     <polyline class="fil0 str0" points="22701.42,4264.65 22337.77,4474.61 22337.77,7601 "/>
    </g>
   </g>
   <g>
    <g>
     <polyline class="fil0 str0" points="20077.21,3171.95 17369.69,4735.15 17369.69,7861.52 "/>
    </g>
    <g>
     <line class="fil0 str0" x1="17369.69" y1="4735.15" x2="20077.21" y2= "3171.95" />
     <line class="fil0 str0" x1="20077.21" y1="3693.01" x2="17369.69" y2= "5256.21" />
     <line class="fil0 str0" x1="20077.21" y1="4214.07" x2="17369.69" y2= "5777.27" />
     <line class="fil0 str0" x1="20077.21" y1="4735.15" x2="17369.69" y2= "6298.34" />
     <line class="fil0 str0" x1="20077.21" y1="5256.21" x2="17369.69" y2= "6819.4" />
     <line class="fil0 str0" x1="20077.21" y1="5777.27" x2="17369.69" y2= "7340.46" />
     <line class="fil0 str0" x1="20077.21" y1="6298.34" x2="17369.69" y2= "7861.52" />
    </g>
   </g>
   <g>
    <g>
     <line class="fil0 str0" x1="17371.83" y1="45.32" x2="17371.83" y2= "1608.52" />
     <line class="fil0 str0" x1="17823.08" y1="45.32" x2="17823.08" y2= "1869.05" />
     <line class="fil0 str0" x1="18274.34" y1="45.32" x2="18274.34" y2= "2129.59" />
     <line class="fil0 str0" x1="18725.59" y1="45.32" x2="18725.59" y2= "2390.11" />
     <line class="fil0 str0" x1="19176.84" y1="45.32" x2="19176.84" y2= "2650.65" />
     <line class="fil0 str0" x1="19628.1" y1="45.32" x2="19628.1" y2= "2911.18" />
     <polyline class="fil0 str0" points="20079.37,45.32 20079.35,45.32 20079.35,3171.71 "/>
    </g>
    <g>
     <line class="fil0 str0" x1="20079.35" y1="45.32" x2="20079.37" y2= "45.32" />
     <line class="fil0 str0" x1="20981.88" y1="45.32" x2="20079.35" y2= "566.39" />
     <line class="fil0 str0" x1="21884.4" y1="45.32" x2="20079.35" y2= "1087.46" />
     <line class="fil0 str0" x1="22701.42" y1="94.67" x2="20079.35" y2= "1608.52" />
     <line class="fil0 str0" x1="22701.42" y1="615.74" x2="20079.35" y2= "2129.59" />
     <line class="fil0 str0" x1="22701.42" y1="1136.8" x2="20079.35" y2= "2650.65" />
     <line class="fil0 str0" x1="22701.42" y1="1657.87" x2="20079.35" y2= "3171.71" />
    </g>
   </g>
  </g>
  <g id="_2263247814016">
   <g>
    <g>
     <polyline class="fil0 str0" points="22701.42,11038.96 20081.49,12551.57 20081.49,15149.39 "/>
     <polyline class="fil0 str0" points="22701.42,11560.02 20532.75,12812.11 20532.75,15149.39 "/>
     <polyline class="fil0 str0" points="22701.42,12081.09 20984,13072.64 20984,15149.39 "/>
     <polyline class="fil0 str0" points="22701.42,12602.16 21435.26,13333.17 21435.26,15149.39 "/>
     <polyline class="fil0 str0" points="22701.42,13123.22 21886.52,13593.7 21886.52,15149.39 "/>
     <polyline class="fil0 str0" points="22701.42,13644.28 22337.77,13854.24 22337.77,15149.39 "/>
    </g>
   </g>
   <g>
    <g>
     <polyline class="fil0 str0" points="20077.21,12551.57 17369.69,14114.77 17369.69,15149.39 "/>
    </g>
    <g>
     <line class="fil0 str0" x1="17369.69" y1="14114.77" x2="20077.21" y2= "12551.57" />
     <line class="fil0 str0" x1="20077.21" y1="13072.64" x2="17369.69" y2= "14635.84" />
     <line class="fil0 str0" x1="20077.21" y1="13593.7" x2="17382.69" y2= "15149.39" />
     <line class="fil0 str0" x1="20077.21" y1="14114.77" x2="18285.2" y2= "15149.39" />
     <line class="fil0 str0" x1="20077.21" y1="14635.84" x2="19187.71" y2= "15149.39" />
    </g>
   </g>
   <g>
    <g>
     <polyline class="fil0 str0" points="20079.35,6298.57 17371.83,7861.76 17371.83,10988.15 "/>
     <polyline class="fil0 str0" points="20530.61,6559.1 17823.08,8122.29 17823.08,11248.68 "/>
     <polyline class="fil0 str0" points="20981.86,6819.64 18274.34,8382.82 18274.34,11509.21 "/>
     <polyline class="fil0 str0" points="21433.12,7080.17 18725.59,8643.36 18725.59,11769.74 "/>
     <polyline class="fil0 str0" points="21884.38,7340.7 19176.84,8903.89 19176.84,12030.28 "/>
     <polyline class="fil0 str0" points="22335.63,7601.23 19628.1,9164.42 19628.1,12290.81 "/>
     <polyline class="fil0 str0" points="22701.42,7911.11 20079.35,9424.95 20079.35,12551.34 "/>
    </g>
    <g>
     <line class="fil0 str0" x1="20079.35" y1="9424.95" x2="22701.42" y2= "7911.11" />
     <line class="fil0 str0" x1="22701.42" y1="8432.17" x2="20079.35" y2= "9946.02" />
     <line class="fil0 str0" x1="22701.42" y1="8953.24" x2="20079.35" y2= "10467.09" />
     <line class="fil0 str0" x1="22701.42" y1="9474.3" x2="20079.35" y2= "10988.15" />
     <line class="fil0 str0" x1="22701.42" y1="9995.36" x2="20079.35" y2= "11509.21" />
     <line class="fil0 str0" x1="22701.42" y1="10516.43" x2="20079.35" y2= "12030.28" />
     <line class="fil0 str0" x1="22701.42" y1="11037.5" x2="20079.35" y2= "12551.34" />
    </g>
   </g>
  </g>
  <g id="_2263247828320">
   <g>
    <g>
     <polyline class="fil0 str0" points="9240.67,6298.57 6533.14,7861.76 6533.14,10988.15 "/>
     <polyline class="fil0 str0" points="9691.93,6559.1 6984.4,8122.29 6984.4,11248.68 "/>
     <polyline class="fil0 str0" points="10143.19,6819.64 7435.65,8382.82 7435.65,11509.21 "/>
     <polyline class="fil0 str0" points="10594.44,7080.17 7886.91,8643.36 7886.91,11769.74 "/>
     <polyline class="fil0 str0" points="11045.69,7340.7 8338.16,8903.89 8338.16,12030.28 "/>
     <polyline class="fil0 str0" points="11496.94,7601.23 8789.42,9164.42 8789.42,12290.81 "/>
     <polyline class="fil0 str0" points="11948.19,7861.76 9240.67,9424.95 9240.67,12551.34 "/>
    </g>
    <g>
     <line class="fil0 str0" x1="9240.67" y1="9424.95" x2="11948.19" y2= "7861.76" />
     <line class="fil0 str0" x1="11948.19" y1="8382.82" x2="9240.67" y2= "9946.02" />
     <line class="fil0 str0" x1="11948.19" y1="8903.89" x2="9240.67" y2= "10467.09" />
     <line class="fil0 str0" x1="11948.19" y1="9424.95" x2="9240.67" y2= "10988.15" />
    </g>
   </g>
   <g>
    <g>
     <polyline class="fil0 str0" points="3821.33,6298.57 1113.8,7861.76 1113.8,10988.15 "/>
     <polyline class="fil0 str0" points="4272.58,6559.1 1565.05,8122.29 1565.05,11248.68 "/>
     <polyline class="fil0 str0" points="4723.83,6819.64 2016.31,8382.82 2016.31,11509.21 "/>
     <polyline class="fil0 str0" points="5175.09,7080.17 2467.56,8643.36 2467.56,11769.74 "/>
     <polyline class="fil0 str0" points="5626.35,7340.7 2918.82,8903.89 2918.82,12030.28 "/>
     <polyline class="fil0 str0" points="6077.6,7601.23 3370.08,9164.42 3370.08,12290.81 "/>
     <polyline class="fil0 str0" points="6528.86,7861.76 3821.33,9424.95 3821.33,12551.34 "/>
    </g>
    <g>
     <line class="fil0 str0" x1="3821.33" y1="9424.95" x2="6528.86" y2= "7861.76" />
     <line class="fil0 str0" x1="6528.86" y1="8382.82" x2="3821.33" y2= "9946.02" />
     <line class="fil0 str0" x1="6528.86" y1="8903.89" x2="3821.33" y2= "10467.09" />
     <line class="fil0 str0" x1="6528.86" y1="9424.95" x2="3821.33" y2= "10988.15" />
    </g>
   </g>
   <g>
    <g>
     <polyline class="fil0 str0" points="11950.34,1608.75 9242.82,3171.95 9242.82,6298.34 "/>
    </g>
   </g>
   <g>
    <g>
     <polyline class="fil0 str0" points="6531,1608.75 3823.47,3171.95 3823.47,6298.34 "/>
     <polyline class="fil0 str0" points="6982.25,1869.28 4274.73,3432.48 4274.73,6558.87 "/>
     <polyline class="fil0 str0" points="7433.51,2129.82 4725.98,3693.01 4725.98,6819.4 "/>
     <polyline class="fil0 str0" points="7884.77,2390.35 5177.23,3953.55 5177.23,7079.94 "/>
     <polyline class="fil0 str0" points="8336.02,2650.88 5628.49,4214.07 5628.49,7340.46 "/>
     <polyline class="fil0 str0" points="8787.28,2911.42 6079.74,4474.61 6079.74,7601 "/>
     <polyline class="fil0 str0" points="9238.53,3171.95 6531,4735.15 6531,7861.52 "/>
    </g>
    <g>
     <line class="fil0 str0" x1="6531" y1="4735.15" x2="9238.54" y2= "3171.95" />
     <line class="fil0 str0" x1="9238.54" y1="3693.01" x2="6531" y2= "5256.21" />
     <line class="fil0 str0" x1="9238.54" y1="4214.07" x2="6531" y2= "5777.27" />
     <line class="fil0 str0" x1="9238.54" y1="4735.15" x2="6531" y2= "6298.34" />
     <line class="fil0 str0" x1="9238.54" y1="5256.21" x2="6531" y2= "6819.4" />
     <line class="fil0 str0" x1="9238.54" y1="5777.27" x2="6531" y2= "7340.46" />
     <line class="fil0 str0" x1="9238.54" y1="6298.34" x2="6531" y2= "7861.52" />
    </g>
   </g>
   <g>
    <g>
     <polyline class="fil0 str0" points="3819.18,3171.95 1111.65,4735.15 1111.65,7861.52 "/>
    </g>
    <g>
     <line class="fil0 str0" x1="1111.65" y1="4735.15" x2="3819.18" y2= "3171.95" />
     <line class="fil0 str0" x1="3819.18" y1="3693.01" x2="1111.65" y2= "5256.21" />
     <line class="fil0 str0" x1="3819.18" y1="4214.07" x2="1111.66" y2= "5777.27" />
     <line class="fil0 str0" x1="3819.18" y1="4735.15" x2="1111.66" y2= "6298.34" />
     <line class="fil0 str0" x1="3819.18" y1="5256.21" x2="1111.66" y2= "6819.4" />
     <line class="fil0 str0" x1="3819.18" y1="5777.27" x2="1111.66" y2= "7340.46" />
     <line class="fil0 str0" x1="3819.18" y1="6298.34" x2="1111.66" y2= "7861.52" />
    </g>
   </g>
   <g>
    <g>
     <line class="fil0 str0" x1="6533.14" y1="45.32" x2="6533.14" y2= "1608.52" />
     <line class="fil0 str0" x1="6984.4" y1="45.32" x2="6984.4" y2= "1869.05" />
     <line class="fil0 str0" x1="7435.65" y1="45.32" x2="7435.65" y2= "2129.59" />
     <line class="fil0 str0" x1="7886.91" y1="45.32" x2="7886.91" y2= "2390.11" />
     <line class="fil0 str0" x1="8338.16" y1="45.32" x2="8338.16" y2= "2650.65" />
     <line class="fil0 str0" x1="8789.42" y1="45.32" x2="8789.42" y2= "2911.18" />
     <polyline class="fil0 str0" points="9240.69,45.32 9240.67,45.32 9240.67,3171.71 "/>
    </g>
    <g>
     <line class="fil0 str0" x1="9240.67" y1="45.32" x2="9240.69" y2= "45.32" />
     <line class="fil0 str0" x1="10143.19" y1="45.32" x2="9240.67" y2= "566.39" />
     <line class="fil0 str0" x1="11045.7" y1="45.32" x2="9240.67" y2= "1087.46" />
     <line class="fil0 str0" x1="11948.19" y1="45.32" x2="9240.67" y2= "1608.52" />
     <line class="fil0 str0" x1="11948.19" y1="566.39" x2="9240.67" y2= "2129.59" />
     <line class="fil0 str0" x1="11948.19" y1="1087.45" x2="9240.67" y2= "2650.65" />
     <line class="fil0 str0" x1="11948.19" y1="1608.52" x2="9240.67" y2= "3171.71" />
    </g>
   </g>
   <g>
    <g>
     <line class="fil0 str0" x1="1113.8" y1="45.32" x2="1113.8" y2= "1608.52" />
     <line class="fil0 str0" x1="1565.05" y1="45.32" x2="1565.05" y2= "1869.05" />
     <line class="fil0 str0" x1="2016.31" y1="45.32" x2="2016.31" y2= "2129.59" />
     <line class="fil0 str0" x1="2467.56" y1="45.32" x2="2467.56" y2= "2390.11" />
     <line class="fil0 str0" x1="2918.82" y1="45.32" x2="2918.82" y2= "2650.65" />
     <line class="fil0 str0" x1="3370.08" y1="45.32" x2="3370.08" y2= "2911.18" />
     <polyline class="fil0 str0" points="3821.34,45.32 3821.33,45.32 3821.33,3171.71 "/>
    </g>
    <g>
     <line class="fil0 str0" x1="3821.33" y1="45.32" x2="3821.34" y2= "45.32" />
     <line class="fil0 str0" x1="4723.85" y1="45.32" x2="3821.33" y2= "566.39" />
     <line class="fil0 str0" x1="5626.37" y1="45.32" x2="3821.33" y2= "1087.46" />
     <line class="fil0 str0" x1="6528.86" y1="45.32" x2="3821.33" y2= "1608.52" />
     <line class="fil0 str0" x1="6528.86" y1="566.39" x2="3821.33" y2= "2129.59" />
     <line class="fil0 str0" x1="6528.86" y1="1087.45" x2="3821.33" y2= "2650.65" />
     <line class="fil0 str0" x1="6528.86" y1="1608.52" x2="3821.33" y2= "3171.71" />
    </g>
   </g>
  </g>
  <g id="_2263249033408">
   <g>
    <g>
     <polyline class="fil0 str0" points="3821.33,6298.57 1113.8,7861.76 1113.8,10988.15 "/>
     <polyline class="fil0 str0" points="4272.58,6559.1 1565.05,8122.29 1565.05,11248.68 "/>
     <polyline class="fil0 str0" points="4723.83,6819.64 2016.31,8382.82 2016.31,11509.21 "/>
     <polyline class="fil0 str0" points="5175.09,7080.17 2467.56,8643.36 2467.56,11769.74 "/>
     <polyline class="fil0 str0" points="5626.35,7340.7 2918.82,8903.89 2918.82,12030.28 "/>
     <polyline class="fil0 str0" points="6077.6,7601.23 3370.08,9164.42 3370.08,12290.81 "/>
     <polyline class="fil0 str0" points="6528.86,7861.76 3821.33,9424.95 3821.33,12551.34 "/>
    </g>
    <g>
     <line class="fil0 str0" x1="3821.33" y1="9424.95" x2="6528.86" y2= "7861.76" />
     <line class="fil0 str0" x1="6528.86" y1="8382.82" x2="3821.33" y2= "9946.02" />
     <line class="fil0 str0" x1="6528.86" y1="8903.89" x2="3821.33" y2= "10467.09" />
     <line class="fil0 str0" x1="6528.86" y1="9424.95" x2="3821.33" y2= "10988.15" />
    </g>
   </g>
   <g>
    <g>
     <line class="fil0 str0" x1="207" y1="7340.7" x2="45.31" y2= "7434.06" />
     <line class="fil0 str0" x1="658.26" y1="7601.23" x2="45.31" y2= "7955.12" />
     <line class="fil0 str0" x1="1109.51" y1="7861.76" x2="45.31" y2= "8476.18" />
    </g>
    <g>
     <line class="fil0 str0" x1="45.31" y1="8476.18" x2="1109.52" y2= "7861.76" />
     <line class="fil0 str0" x1="1109.52" y1="8382.82" x2="45.31" y2= "8997.24" />
     <line class="fil0 str0" x1="1109.52" y1="8903.89" x2="45.31" y2= "9518.31" />
     <line class="fil0 str0" x1="1109.52" y1="9424.95" x2="45.31" y2= "10039.38" />
    </g>
   </g>
   <g>
    <g>
     <polyline class="fil0 str0" points="6531,1608.75 3823.47,3171.95 3823.47,6298.34 "/>
    </g>
   </g>
   <g>
    <g>
     <line class="fil0 str0" x1="1111.65" y1="1608.75" x2="45.31" y2= "2224.4" />
     <line class="fil0 str0" x1="1562.91" y1="1869.28" x2="45.31" y2= "2745.48" />
     <line class="fil0 str0" x1="2014.17" y1="2129.82" x2="45.31" y2= "3266.54" />
     <line class="fil0 str0" x1="2465.42" y1="2390.35" x2="45.31" y2= "3787.6" />
     <polyline class="fil0 str0" points="2916.68,2650.88 209.14,4214.07 209.14,7340.46 "/>
     <polyline class="fil0 str0" points="3367.93,2911.42 660.4,4474.61 660.4,7601 "/>
     <polyline class="fil0 str0" points="3819.18,3171.95 1111.65,4735.15 1111.65,7861.52 "/>
    </g>
    <g>
     <line class="fil0 str0" x1="1111.65" y1="4735.15" x2="3819.18" y2= "3171.95" />
     <line class="fil0 str0" x1="3819.18" y1="3693.01" x2="1111.65" y2= "5256.21" />
     <line class="fil0 str0" x1="3819.18" y1="4214.07" x2="1111.65" y2= "5777.27" />
     <line class="fil0 str0" x1="3819.18" y1="4735.15" x2="1111.65" y2= "6298.34" />
     <line class="fil0 str0" x1="3819.18" y1="5256.21" x2="1111.65" y2= "6819.4" />
     <line class="fil0 str0" x1="3819.18" y1="5777.27" x2="1111.65" y2= "7340.46" />
     <line class="fil0 str0" x1="3819.18" y1="6298.34" x2="1111.65" y2= "7861.52" />
    </g>
   </g>
   <g>
    <g>
     <line class="fil0 str0" x1="1113.8" y1="45.32" x2="1113.8" y2= "1608.52" />
     <line class="fil0 str0" x1="1565.05" y1="45.32" x2="1565.05" y2= "1869.05" />
     <line class="fil0 str0" x1="2016.31" y1="45.32" x2="2016.31" y2= "2129.59" />
     <line class="fil0 str0" x1="2467.56" y1="45.32" x2="2467.56" y2= "2390.11" />
     <line class="fil0 str0" x1="2918.82" y1="45.32" x2="2918.82" y2= "2650.65" />
     <line class="fil0 str0" x1="3370.08" y1="45.32" x2="3370.08" y2= "2911.18" />
     <polyline class="fil0 str0" points="3821.34,45.32 3821.33,45.32 3821.33,3171.71 "/>
    </g>
    <g>
     <line class="fil0 str0" x1="3821.33" y1="45.32" x2="3821.34" y2= "45.32" />
     <line class="fil0 str0" x1="4723.85" y1="45.32" x2="3821.33" y2= "566.39" />
     <line class="fil0 str0" x1="5626.37" y1="45.32" x2="3821.33" y2= "1087.46" />
     <line class="fil0 str0" x1="6528.86" y1="45.32" x2="3821.33" y2= "1608.52" />
     <line class="fil0 str0" x1="6528.86" y1="566.39" x2="3821.33" y2= "2129.59" />
     <line class="fil0 str0" x1="6528.86" y1="1087.45" x2="3821.33" y2= "2650.65" />
     <line class="fil0 str0" x1="6528.86" y1="1608.52" x2="3821.33" y2= "3171.71" />
    </g>
   </g>
   <g>
    <g>
     <line class="fil0 str0" x1="207.03" y1="45.32" x2="45.31" y2= "138.69" />
     <line class="fil0 str0" x1="1109.52" y1="45.32" x2="45.31" y2= "659.75" />
     <line class="fil0 str0" x1="1109.52" y1="566.39" x2="45.31" y2= "1180.81" />
     <line class="fil0 str0" x1="1109.52" y1="1087.45" x2="45.31" y2= "1701.88" />
     <line class="fil0 str0" x1="1109.52" y1="1608.52" x2="45.31" y2= "2222.94" />
    </g>
   </g>
  </g>
  <g id="_2263249044544">
   <g>
    <g>
     <polyline class="fil0 str0" points="11950.34,10988.38 9242.82,12551.57 9242.82,15149.39 "/>
    </g>
   </g>
   <g>
    <g>
     <polyline class="fil0 str0" points="6531,10988.38 3823.47,12551.57 3823.47,15149.39 "/>
     <polyline class="fil0 str0" points="6982.25,11248.91 4274.73,12812.11 4274.73,15149.39 "/>
     <polyline class="fil0 str0" points="7433.51,11509.45 4725.98,13072.64 4725.98,15149.39 "/>
     <polyline class="fil0 str0" points="7884.77,11769.98 5177.23,13333.17 5177.23,15149.39 "/>
     <polyline class="fil0 str0" points="8336.02,12030.51 5628.49,13593.7 5628.49,15149.39 "/>
     <polyline class="fil0 str0" points="8787.28,12291.05 6079.74,13854.24 6079.74,15149.39 "/>
     <polyline class="fil0 str0" points="9238.53,12551.57 6531,14114.77 6531,15149.39 "/>
    </g>
    <g>
     <line class="fil0 str0" x1="6531" y1="14114.77" x2="9238.54" y2= "12551.57" />
     <line class="fil0 str0" x1="9238.54" y1="13072.64" x2="6531" y2= "14635.84" />
     <line class="fil0 str0" x1="9238.54" y1="13593.7" x2="6544.01" y2= "15149.39" />
     <line class="fil0 str0" x1="9238.54" y1="14114.77" x2="7446.52" y2= "15149.39" />
     <line class="fil0 str0" x1="9238.54" y1="14635.84" x2="8349.03" y2= "15149.39" />
    </g>
   </g>
   <g>
    <g>
     <polyline class="fil0 str0" points="3819.18,12551.57 1111.65,14114.77 1111.65,15149.39 "/>
    </g>
    <g>
     <line class="fil0 str0" x1="1111.65" y1="14114.77" x2="3819.18" y2= "12551.57" />
     <line class="fil0 str0" x1="3819.18" y1="13072.64" x2="1111.65" y2= "14635.84" />
     <line class="fil0 str0" x1="3819.18" y1="13593.7" x2="1124.67" y2= "15149.39" />
     <line class="fil0 str0" x1="3819.18" y1="14114.77" x2="2027.17" y2= "15149.39" />
     <line class="fil0 str0" x1="3819.18" y1="14635.84" x2="2929.68" y2= "15149.39" />
    </g>
   </g>
   <g>
    <g>
     <polyline class="fil0 str0" points="9240.67,6298.57 6533.14,7861.76 6533.14,10988.15 "/>
     <polyline class="fil0 str0" points="9691.93,6559.1 6984.4,8122.29 6984.4,11248.68 "/>
     <polyline class="fil0 str0" points="10143.19,6819.64 7435.65,8382.82 7435.65,11509.21 "/>
     <polyline class="fil0 str0" points="10594.44,7080.17 7886.91,8643.36 7886.91,11769.74 "/>
     <polyline class="fil0 str0" points="11045.69,7340.7 8338.16,8903.89 8338.16,12030.28 "/>
     <polyline class="fil0 str0" points="11496.94,7601.23 8789.42,9164.42 8789.42,12290.81 "/>
     <polyline class="fil0 str0" points="11948.19,7861.76 9240.67,9424.95 9240.67,12551.34 "/>
    </g>
    <g>
     <line class="fil0 str0" x1="9240.67" y1="9424.95" x2="11948.19" y2= "7861.76" />
     <line class="fil0 str0" x1="11948.19" y1="8382.82" x2="9240.67" y2= "9946.02" />
     <line class="fil0 str0" x1="11948.19" y1="8903.89" x2="9240.67" y2= "10467.09" />
     <line class="fil0 str0" x1="11948.19" y1="9424.95" x2="9240.67" y2= "10988.15" />
     <line class="fil0 str0" x1="11948.19" y1="9946.02" x2="9240.67" y2= "11509.21" />
     <line class="fil0 str0" x1="11948.19" y1="10467.08" x2="9240.67" y2= "12030.28" />
     <line class="fil0 str0" x1="11948.19" y1="10988.15" x2="9240.67" y2= "12551.34" />
    </g>
   </g>
   <g>
    <g>
     <polyline class="fil0 str0" points="3821.33,6298.57 1113.8,7861.76 1113.8,10988.15 "/>
     <polyline class="fil0 str0" points="4272.58,6559.1 1565.05,8122.29 1565.05,11248.68 "/>
     <polyline class="fil0 str0" points="4723.83,6819.64 2016.31,8382.82 2016.31,11509.21 "/>
     <polyline class="fil0 str0" points="5175.09,7080.17 2467.56,8643.36 2467.56,11769.74 "/>
     <polyline class="fil0 str0" points="5626.35,7340.7 2918.82,8903.89 2918.82,12030.28 "/>
     <polyline class="fil0 str0" points="6077.6,7601.23 3370.08,9164.42 3370.08,12290.81 "/>
     <polyline class="fil0 str0" points="6528.86,7861.76 3821.33,9424.95 3821.33,12551.34 "/>
    </g>
    <g>
     <line class="fil0 str0" x1="3821.33" y1="9424.95" x2="6528.86" y2= "7861.76" />
     <line class="fil0 str0" x1="6528.86" y1="8382.82" x2="3821.33" y2= "9946.02" />
     <line class="fil0 str0" x1="6528.86" y1="8903.89" x2="3821.33" y2= "10467.09" />
     <line class="fil0 str0" x1="6528.86" y1="9424.95" x2="3821.33" y2= "10988.15" />
     <line class="fil0 str0" x1="6528.86" y1="9946.02" x2="3821.33" y2= "11509.21" />
     <line class="fil0 str0" x1="6528.86" y1="10467.08" x2="3821.33" y2= "12030.28" />
     <line class="fil0 str0" x1="6528.86" y1="10988.15" x2="3821.33" y2= "12551.34" />
    </g>
   </g>
  </g>
  <g id="_2263249061680">
   <g>
    <g>
     <polyline class="fil0 str0" points="6531,10988.38 3823.47,12551.57 3823.47,15149.39 "/>
    </g>
   </g>
   <g>
    <g>
     <line class="fil0 str0" x1="1111.65" y1="10988.38" x2="45.31" y2= "11604.03" />
     <line class="fil0 str0" x1="1562.91" y1="11248.91" x2="45.31" y2= "12125.1" />
     <line class="fil0 str0" x1="2014.17" y1="11509.45" x2="45.31" y2= "12646.17" />
     <line class="fil0 str0" x1="2465.42" y1="11769.98" x2="45.31" y2= "13167.23" />
     <polyline class="fil0 str0" points="2916.68,12030.51 209.14,13593.7 209.14,15149.39 "/>
     <polyline class="fil0 str0" points="3367.93,12291.05 660.4,13854.24 660.4,15149.39 "/>
     <polyline class="fil0 str0" points="3819.18,12551.57 1111.65,14114.77 1111.65,15149.39 "/>
    </g>
    <g>
     <line class="fil0 str0" x1="1111.65" y1="14114.77" x2="3819.18" y2= "12551.57" />
     <line class="fil0 str0" x1="3819.18" y1="13072.64" x2="1111.65" y2= "14635.84" />
     <line class="fil0 str0" x1="3819.18" y1="13593.7" x2="1124.66" y2= "15149.39" />
     <line class="fil0 str0" x1="3819.18" y1="14114.77" x2="2027.17" y2= "15149.39" />
     <line class="fil0 str0" x1="3819.18" y1="14635.84" x2="2929.68" y2= "15149.39" />
    </g>
   </g>
   <g>
    <g>
     <polyline class="fil0 str0" points="3821.33,6298.57 1113.8,7861.76 1113.8,10988.15 "/>
     <polyline class="fil0 str0" points="4272.58,6559.1 1565.05,8122.29 1565.05,11248.68 "/>
     <polyline class="fil0 str0" points="4723.83,6819.64 2016.31,8382.82 2016.31,11509.21 "/>
     <polyline class="fil0 str0" points="5175.09,7080.17 2467.56,8643.36 2467.56,11769.74 "/>
     <polyline class="fil0 str0" points="5626.35,7340.7 2918.82,8903.89 2918.82,12030.28 "/>
     <polyline class="fil0 str0" points="6077.6,7601.23 3370.08,9164.42 3370.08,12290.81 "/>
     <polyline class="fil0 str0" points="6528.86,7861.76 3821.33,9424.95 3821.33,12551.34 "/>
    </g>
    <g>
     <line class="fil0 str0" x1="3821.33" y1="9424.95" x2="6528.86" y2= "7861.76" />
     <line class="fil0 str0" x1="6528.86" y1="8382.82" x2="3821.33" y2= "9946.02" />
     <line class="fil0 str0" x1="6528.86" y1="8903.89" x2="3821.33" y2= "10467.09" />
     <line class="fil0 str0" x1="6528.86" y1="9424.95" x2="3821.33" y2= "10988.15" />
     <line class="fil0 str0" x1="6528.86" y1="9946.02" x2="3821.33" y2= "11509.21" />
     <line class="fil0 str0" x1="6528.86" y1="10467.08" x2="3821.33" y2= "12030.28" />
     <line class="fil0 str0" x1="6528.86" y1="10988.15" x2="3821.33" y2= "12551.34" />
    </g>
   </g>
   <g>
    <g>
     <line class="fil0 str0" x1="207" y1="7340.7" x2="45.31" y2= "7434.06" />
     <line class="fil0 str0" x1="658.26" y1="7601.23" x2="45.31" y2= "7955.12" />
     <line class="fil0 str0" x1="1109.51" y1="7861.76" x2="45.31" y2= "8476.18" />
    </g>
    <g>
     <line class="fil0 str0" x1="45.31" y1="8476.18" x2="1109.52" y2= "7861.76" />
     <line class="fil0 str0" x1="1109.52" y1="8382.82" x2="45.31" y2= "8997.24" />
     <line class="fil0 str0" x1="1109.52" y1="8903.89" x2="45.31" y2= "9518.31" />
     <line class="fil0 str0" x1="1109.52" y1="9424.95" x2="45.31" y2= "10039.38" />
     <line class="fil0 str0" x1="1109.52" y1="9946.02" x2="45.31" y2= "10560.44" />
     <line class="fil0 str0" x1="1109.52" y1="10467.08" x2="45.31" y2= "11081.5" />
     <line class="fil0 str0" x1="1109.52" y1="10988.15" x2="45.31" y2= "11602.57" />
    </g>
   </g>
  </g>
 </g>
</svg>
