<?xml version="1.0" encoding="UTF-8"?>
<!DOCTYPE svg PUBLIC "-//W3C//DTD SVG 1.1//EN" "http://www.w3.org/Graphics/SVG/1.1/DTD/svg11.dtd">
<!-- Creator: CorelDRAW 2021 (64 Bit) -->
<svg xmlns="http://www.w3.org/2000/svg" xml:space="preserve" width="226.928mm" height="230.818mm" version="1.1" style="shape-rendering:geometricPrecision; text-rendering:geometricPrecision; image-rendering:optimizeQuality; fill-rule:evenodd; clip-rule:evenodd"
viewBox="0 0 16290.47 16569.69"
 xmlns:xlink="http://www.w3.org/1999/xlink"
 xmlns:xodm="http://www.corel.com/coreldraw/odm/2003">
 <defs>
  <style type="text/css">
   <![CDATA[
    .fil0 {fill:#16C9C9;fill-rule:nonzero}
   ]]>
  </style>
 </defs>
 <g id="PATTERN">
  <metadata id="CorelCorpID_0Corel-Layer"/>
  <path class="fil0" d="M7568.67 14.29c-937.02,78.51 -1977.86,374.81 -2859.17,815.46 -1587.87,792.66 -2836.38,2048.77 -3611.32,3629.05 -1139.62,2319.75 -1106.69,4907.94 88.64,7326.46l189.93 382.4 -701.49 2081.7c-526.76,1567.6 -693.9,2091.83 -673.64,2122.22 15.2,22.79 50.65,43.05 81.04,48.12 40.52,7.6 53.18,25.33 53.18,83.57 0,68.38 7.6,75.97 58.25,58.25 179.8,-55.71 1638.51,-521.69 2843.97,-906.62l1392.87 -445.72 367.21 172.21c1440.98,688.84 2909.82,937.02 4441.97,749.61 2284.3,-278.58 4340.67,-1549.88 5619.57,-3479.63 1035.78,-1560.01 1554.95,-3494.82 1405.53,-5259.96 -136.75,-1635.98 -734.42,-3142.81 -1755.01,-4419.18 -1002.86,-1256.11 -2431.18,-2208.32 -3993.72,-2664.17 -334.29,-98.76 -934.49,-222.86 -1289.03,-268.44 -291.23,-37.99 -1314.36,-53.18 -1658.77,-25.33l0 -0.01zm1620.79 1706.89c1468.84,220.33 2719.88,845.85 3760.73,1889.23 1012.99,1010.46 1615.72,2208.32 1787.93,3558.14 53.18,420.39 55.71,1228.25 2.53,1646.12 -179.8,1430.85 -825.59,2742.67 -1853.77,3773.4 -759.74,764.81 -1590.39,1278.9 -2595.79,1610.66 -666.05,217.79 -1233.32,306.43 -2000.66,306.43 -630.59,2.53 -992.73,-37.99 -1532.15,-169.68 -734.42,-177.27 -1220.66,-384.94 -2043.71,-871.18 -63.31,-37.99 -108.89,-25.33 -1235.85,334.29 -643.25,205.13 -1180.13,367.21 -1190.27,359.61 -12.66,-7.6 144.35,-506.5 344.42,-1109.23 200.06,-600.2 364.68,-1121.89 364.68,-1154.81 0,-32.92 -65.84,-164.61 -149.42,-291.23 -901.56,-1400.46 -1243.45,-2927.55 -1012.99,-4535.67 134.22,-939.55 455.85,-1765.14 990.2,-2535.02 1114.29,-1613.19 2864.24,-2643.91 4831.97,-2846.51 301.37,-30.39 1230.79,-10.13 1532.15,35.46z"/>
  <path class="fil0" d="M5390.74 4073.86c-157.01,53.18 -288.71,146.88 -483.71,349.48 -430.52,450.78 -633.12,921.82 -660.98,1554.95 -32.92,726.82 250.72,1529.62 891.43,2519.82 1071.24,1653.71 2147.55,2623.65 3570.8,3216.25 729.35,303.9 1205.46,460.91 1519.49,506.5 235.52,30.39 701.49,-37.99 990.2,-149.42 260.84,-101.3 625.52,-339.35 787.6,-516.63 248.18,-273.51 463.44,-881.31 463.44,-1314.36 0,-179.8 -5.07,-202.6 -68.38,-273.51 -129.16,-141.82 -1734.75,-980.07 -1924.68,-1005.4 -172.21,-22.79 -240.59,25.33 -524.22,357.08 -440.65,514.09 -577.4,648.31 -655.91,648.31 -91.17,0 -701.49,-306.43 -992.73,-498.9 -711.63,-471.04 -1304.23,-1116.82 -1767.67,-1937.35 -37.99,-65.84 -68.38,-129.16 -68.38,-144.35 0,-15.2 81.04,-116.5 179.8,-222.86 238.05,-260.84 316.56,-379.87 417.86,-625.52 116.5,-276.04 111.43,-349.48 -43.05,-767.34 -222.86,-607.8 -293.77,-797.73 -415.33,-1124.42 -126.62,-339.35 -222.86,-488.77 -352.01,-541.95 -119.03,-50.65 -739.48,-70.91 -863.57,-30.39l0 -0.01z"/>
 </g>
</svg>
